<?xml version="1.0" standalone="no"?>
<!DOCTYPE svg PUBLIC "-//W3C//DTD SVG 20010904//EN"
 "http://www.w3.org/TR/2001/REC-SVG-20010904/DTD/svg10.dtd">
<svg version="1.0" xmlns="http://www.w3.org/2000/svg"
 width="1024.000000pt" height="1024.000000pt" viewBox="0 0 1024.000000 1024.000000"
 preserveAspectRatio="xMidYMid meet">

<g transform="translate(0.000000,1024.000000) scale(0.100000,-0.100000)"
fill="#000000" stroke="none">
<path d="M5635 9294 c-20 -20 -16 -48 8 -52 38 -7 66 49 31 62 -21 8 -20 8
-39 -10z"/>
<path d="M5716 9278 c-11 -16 -13 -25 -4 -35 18 -22 47 -15 54 11 11 47 -23
63 -50 24z"/>
<path d="M5425 9216 c-109 -35 -185 -100 -185 -160 0 -51 44 -79 94 -60 12 4
13 10 4 29 -18 39 -2 73 49 105 47 30 141 66 149 57 3 -3 -25 -53 -61 -112
-96 -155 -109 -200 -68 -247 31 -35 87 -29 150 17 21 16 22 16 11 -19 -9 -29
-8 -40 6 -60 19 -30 70 -35 102 -11 19 14 18 15 -5 21 -20 6 -22 11 -18 43 3
20 42 107 86 193 45 87 81 164 81 172 0 13 -20 26 -40 26 -5 0 -40 -46 -79
-102 -116 -171 -235 -284 -223 -212 2 10 33 72 69 136 71 129 77 163 33 185
-32 16 -103 15 -155 -1z"/>
<path d="M4164 9036 c-9 -39 -1 -61 21 -58 26 5 36 21 33 52 -4 36 -45 41 -54
6z"/>
<path d="M4558 9024 c-34 -18 -56 -59 -65 -120 -3 -27 -16 -57 -29 -73 l-24
-26 8 50 c4 28 7 70 7 95 0 42 -2 45 -24 42 -32 -3 -29 2 -50 -75 -32 -115
-78 -161 -64 -64 13 92 11 112 -14 115 -28 4 -38 -15 -53 -105 -6 -41 -18 -78
-27 -85 -15 -12 -15 -4 -9 75 l7 87 -24 0 c-34 0 -42 -14 -54 -98 -6 -40 -17
-79 -23 -87 -25 -30 -32 -15 -25 58 6 62 4 76 -12 95 -15 20 -22 22 -44 13
-15 -5 -35 -21 -46 -35 l-20 -25 5 73 c5 78 -2 92 -38 81 -24 -8 -27 -20 -40
-168 -7 -92 -14 -126 -31 -153 -33 -55 -44 -39 -47 72 l-3 100 36 17 c41 19
42 43 2 40 -19 -1 -27 4 -31 23 -7 26 -17 29 -47 14 -13 -7 -19 -21 -19 -45 0
-27 -5 -37 -27 -47 -16 -7 -28 -20 -28 -28 0 -10 8 -14 28 -12 l27 3 0 -70 c0
-87 -22 -149 -56 -157 -55 -14 -75 30 -28 61 53 34 64 111 18 129 -27 10 -87
-26 -105 -63 -14 -29 -82 -79 -111 -81 -4 0 -9 26 -13 58 -10 93 -15 111 -33
114 -26 6 40 38 78 38 36 0 40 -22 8 -44 -16 -12 -19 -19 -11 -27 16 -16 43
-7 65 22 39 52 -16 108 -92 94 -46 -9 -139 -59 -190 -102 -84 -72 -123 -185
-84 -241 16 -23 57 -29 83 -13 11 7 11 13 -3 32 -9 13 -16 35 -16 50 0 31 69
140 103 161 l22 15 3 -101 3 -101 -35 -19 c-52 -28 -70 -51 -62 -81 8 -31 18
-32 52 0 36 34 54 32 54 -5 0 -17 6 -46 14 -65 18 -42 51 -53 95 -31 35 18 41
36 12 36 -22 0 -37 36 -46 108 -6 47 -6 47 36 74 24 15 46 25 50 22 4 -2 10
-19 13 -38 7 -38 46 -76 78 -76 30 0 73 26 92 56 13 19 21 23 29 15 21 -21 64
-12 89 17 19 23 27 26 40 18 22 -13 72 9 65 28 -8 20 19 139 38 173 15 27 16
26 10 -38 -9 -100 18 -142 78 -120 14 6 30 18 35 27 8 15 13 16 25 6 17 -15
60 -7 77 13 7 9 23 12 45 8 30 -5 39 -1 64 26 18 19 27 24 24 14 -3 -10 -24
-32 -47 -48 -34 -26 -41 -36 -41 -65 0 -33 2 -35 38 -38 27 -2 45 2 59 15 23
21 48 66 48 86 0 8 18 32 39 54 38 38 39 38 61 21 29 -24 57 -23 102 5 41 25
73 61 88 101 16 43 -23 33 -54 -14 -28 -43 -67 -60 -91 -40 -26 22 -17 45 25
64 24 10 47 30 56 48 14 27 14 32 -1 54 -18 28 -55 31 -97 8z m62 -34 c0 -14
-40 -53 -47 -46 -8 7 25 56 37 56 6 0 10 -4 10 -10z m-940 -254 c0 -17 -27
-52 -34 -45 -9 9 15 70 25 63 5 -3 9 -11 9 -18z m670 -51 c-7 -8 -17 -15 -22
-15 -6 0 -5 7 2 15 7 8 17 15 22 15 6 0 5 -7 -2 -15z"/>
<path d="M4955 9022 c-64 -2 -94 -7 -107 -19 -32 -28 -10 -34 100 -27 111 7
137 15 112 37 -10 8 -44 11 -105 9z"/>
<path d="M6112 9018 c-27 -27 -3 -66 33 -52 17 7 29 39 20 54 -8 14 -38 13
-53 -2z"/>
<path d="M5820 9005 c-6 -8 -10 -22 -8 -32 3 -10 -2 -31 -10 -47 -20 -41 0
-56 27 -18 16 23 26 28 46 24 41 -7 24 -37 -25 -44 -17 -2 -25 -9 -25 -23 0
-12 -13 -28 -35 -40 -19 -11 -41 -32 -49 -46 -13 -24 -13 -29 2 -53 20 -30 61
-35 106 -11 28 14 61 68 61 98 0 15 37 34 47 24 2 -3 0 -14 -6 -25 -32 -61 9
-108 72 -84 21 8 33 9 35 2 12 -35 91 -56 108 -29 4 7 11 2 18 -13 20 -40 49
-34 99 19 42 45 127 103 127 87 0 -4 -20 -28 -45 -55 -53 -57 -66 -96 -40
-116 26 -18 43 -16 49 5 7 20 102 102 119 102 6 0 -3 -15 -20 -32 -44 -47 -56
-74 -43 -98 12 -22 50 -35 79 -27 13 3 21 -1 24 -14 8 -30 52 -45 97 -32 22 5
37 6 34 1 -20 -33 38 -71 89 -57 24 6 27 5 27 -17 0 -26 26 -44 65 -44 27 0
119 42 130 60 9 15 -23 24 -39 11 -8 -7 -28 -16 -45 -21 -49 -14 -39 11 31 73
44 38 60 59 55 70 -12 31 -56 19 -120 -33 -60 -49 -101 -69 -114 -56 -4 4 22
35 56 70 43 44 62 69 58 80 -10 27 -46 18 -95 -23 -74 -61 -152 -92 -152 -60
0 7 46 58 101 115 102 103 113 125 70 137 -16 4 -44 -19 -128 -104 -76 -76
-116 -109 -132 -109 -22 0 -21 2 13 42 46 54 48 92 6 107 -17 5 -37 8 -45 5
-11 -5 -15 2 -15 25 0 43 -40 60 -88 37 -39 -19 -50 -20 -34 -4 19 19 14 37
-13 44 -21 5 -34 -2 -78 -48 -51 -54 -113 -95 -125 -84 -3 4 16 38 42 76 50
73 54 100 13 100 -17 0 -37 -17 -72 -60 -91 -117 -143 -123 -65 -8 29 42 49
81 46 86 -3 5 -15 12 -27 15 -20 5 -28 -1 -76 -62 -14 -16 -31 -24 -58 -25
l-40 -2 33 32 c45 45 43 70 -8 79 -24 4 -44 14 -50 26 -13 23 -43 25 -60 4z
m8 -227 c-8 -12 -20 -24 -26 -26 -19 -6 -14 26 6 37 28 17 35 13 20 -11z"/>
<path d="M6196 8995 c-22 -22 -20 -42 4 -50 27 -8 52 12 48 39 -4 26 -31 32
-52 11z"/>
<path d="M6875 8724 c-12 -12 -13 -19 -4 -30 15 -18 43 -18 59 1 29 35 -21 62
-55 29z"/>
<path d="M6952 8688 c-22 -22 -7 -48 28 -48 16 0 39 31 34 45 -7 18 -45 20
-62 3z"/>
<path d="M5203 8609 c-47 -23 -88 -74 -148 -184 -60 -109 -79 -129 -204 -214
-65 -44 -133 -97 -153 -119 -19 -21 -70 -101 -112 -176 -65 -115 -81 -136
-101 -136 -32 0 -55 35 -55 84 0 22 -9 59 -21 82 -26 55 -137 151 -185 160
-76 14 -146 -23 -179 -95 -12 -27 -32 -49 -59 -65 -43 -25 -95 -72 -133 -119
-19 -22 -31 -27 -67 -27 -39 0 -53 -6 -106 -50 -72 -61 -72 -61 -155 50 -29
39 -62 78 -72 86 -32 24 -87 17 -136 -18 -103 -75 -156 -119 -175 -145 -41
-58 -280 -462 -332 -561 -29 -56 -73 -125 -97 -153 -24 -28 -41 -55 -38 -59 9
-15 66 8 180 71 175 99 183 104 194 146 6 21 11 62 11 91 0 75 20 107 90 142
70 35 82 53 74 113 -5 37 -3 48 15 66 21 21 57 27 76 13 6 -4 21 -21 33 -38
18 -26 190 -154 207 -154 17 0 -1 32 -41 70 -56 55 -74 88 -74 136 0 34 1 36
19 23 11 -8 88 -61 171 -118 83 -57 166 -122 183 -143 54 -68 117 -87 153 -47
19 21 18 21 -5 40 -13 10 -29 19 -36 19 -18 0 -124 118 -141 156 -14 32 -9 68
15 113 7 12 37 35 67 52 32 18 83 62 122 106 72 81 130 117 203 128 50 7 46
11 139 -99 50 -59 60 -83 60 -142 0 -55 -24 -104 -89 -180 -28 -32 -51 -66
-51 -74 0 -9 16 -30 35 -48 40 -38 50 -78 41 -156 -8 -58 7 -86 43 -86 34 0
45 -26 32 -71 -17 -56 -4 -69 70 -69 53 0 60 -3 80 -30 13 -16 37 -34 55 -40
18 -6 53 -29 78 -51 72 -63 108 -35 55 43 -11 14 -33 56 -49 93 -17 38 -44 83
-60 101 -61 71 -87 264 -46 347 32 65 78 107 118 107 44 0 61 15 82 73 10 26
26 52 37 57 14 8 19 22 19 51 0 64 26 109 78 131 39 18 51 18 108 9 35 -6 84
-20 110 -31 25 -11 48 -20 51 -20 12 0 -10 54 -42 105 -20 30 -38 69 -42 87
-3 18 -21 54 -39 79 -19 26 -34 51 -34 57 0 18 52 52 80 52 15 0 34 -7 41 -17
12 -14 68 -43 85 -43 3 0 3 33 -1 73 -6 60 -4 75 9 86 20 17 36 5 70 -54 14
-23 32 -45 41 -48 19 -8 35 22 35 66 0 23 6 37 16 41 23 9 30 2 48 -55 26 -77
58 -118 149 -191 46 -37 97 -83 113 -103 16 -19 43 -51 60 -71 17 -19 37 -54
45 -77 16 -51 137 -175 301 -308 l111 -90 26 23 c14 13 28 24 31 26 3 2 -2 9
-11 15 -18 14 -39 50 -39 67 0 7 42 56 94 109 59 60 97 109 101 127 4 16 16
57 27 92 28 89 44 84 126 -46 l65 -104 -27 -24 c-14 -14 -26 -29 -26 -34 0
-14 45 -35 128 -59 62 -19 79 -20 108 -11 21 7 54 9 80 5 77 -11 95 32 36 82
l-27 23 36 35 35 36 120 -55 c66 -31 121 -51 123 -45 1 6 1 11 0 13 -2 1 -51
45 -109 98 -139 127 -168 134 -255 58 -25 -22 -57 -43 -70 -46 -38 -9 -87 28
-143 109 -61 88 -87 113 -130 122 -43 9 -111 -25 -207 -102 -39 -31 -97 -74
-129 -95 -54 -35 -65 -38 -127 -38 -77 0 -73 -3 -156 104 -76 97 -206 229
-277 282 -55 42 -105 95 -129 139 -6 11 -12 50 -13 86 -3 77 -27 133 -74 173
-28 23 -40 26 -103 26 -53 0 -83 -6 -114 -21z"/>
<path d="M2974 8334 c-198 -133 -337 -243 -514 -408 -497 -464 -859 -1051
-1059 -1716 -23 -74 -41 -138 -41 -142 0 -4 7 -14 16 -22 26 -26 52 -3 69 62
34 123 129 390 181 510 296 682 780 1255 1408 1667 119 79 138 103 97 125 -11
5 -22 10 -24 10 -2 0 -62 -39 -133 -86z"/>
<path d="M7142 8388 c-28 -28 -11 -48 111 -130 514 -348 942 -822 1233 -1366
34 -64 42 -73 64 -70 45 5 37 43 -40 178 -259 454 -598 847 -1002 1163 -101
78 -333 237 -347 237 -4 0 -12 -5 -19 -12z"/>
<path d="M5275 8060 c-3 -5 28 -72 70 -148 41 -77 75 -144 75 -150 0 -20 52
-73 91 -93 30 -15 39 -16 39 -6 0 19 -114 249 -141 286 -32 44 -127 123 -134
111z"/>
<path d="M5647 7583 c-4 -3 -7 -12 -7 -18 0 -14 129 -129 136 -122 6 6 -42
105 -64 130 -15 17 -53 23 -65 10z"/>
<path d="M3901 6919 c-338 -71 -567 -255 -637 -510 -28 -102 -24 -254 10 -352
89 -264 330 -416 750 -474 164 -23 543 -22 713 1 213 28 460 100 718 208 123
51 400 187 513 251 34 20 62 32 62 26 0 -5 -11 -70 -25 -145 -14 -74 -36 -219
-50 -322 -25 -182 -64 -346 -121 -507 -60 -169 -153 -252 -200 -179 -15 22
-16 43 -11 157 7 130 31 313 62 455 8 40 15 78 15 83 0 12 -86 12 -129 -1 -42
-12 -51 -24 -51 -72 0 -44 -2 -45 -40 -18 -124 88 -321 13 -424 -162 -14 -24
-40 -86 -59 -138 -19 -52 -51 -138 -71 -190 -20 -52 -44 -114 -52 -138 -30
-81 -99 -136 -142 -113 -44 24 -46 53 -18 318 33 311 33 303 0 303 -52 0 -116
-22 -124 -44 -4 -12 -15 -70 -24 -131 -21 -135 -82 -402 -107 -471 -62 -166
-219 -225 -244 -91 -9 46 11 298 35 461 11 71 20 135 20 142 0 10 -17 14 -64
14 -101 0 -102 -3 -121 -200 -24 -272 -114 -538 -200 -594 -30 -20 -69 -21
-84 -2 -31 37 -20 246 26 506 42 234 42 210 -8 209 -92 -1 -139 -35 -139 -102
l0 -28 -32 25 c-139 105 -356 6 -453 -206 -38 -84 -65 -201 -69 -307 -3 -78
-10 -112 -36 -179 -54 -140 -124 -223 -167 -196 -9 5 -23 28 -31 50 -20 56
-10 360 18 589 l23 180 49 38 c58 45 138 150 138 181 0 25 -17 46 -38 46 -8 0
-38 -21 -66 -47 -38 -36 -51 -44 -54 -32 -2 9 17 157 43 329 25 172 45 325 45
341 0 26 -3 29 -31 29 -50 0 -109 -21 -129 -47 -21 -27 -57 -207 -109 -542
l-36 -234 -85 -29 c-119 -40 -351 -96 -438 -106 l-74 -9 6 46 c3 25 8 174 12
331 7 318 -6 488 -51 665 -48 191 -71 216 -180 195 -159 -31 -316 -119 -431
-243 -125 -134 -177 -229 -209 -382 -18 -88 -14 -121 14 -130 31 -10 47 4 71
63 79 196 229 355 425 452 55 28 107 50 116 50 33 0 68 -272 69 -524 0 -139
-13 -356 -28 -486 l-7 -54 -98 -12 c-191 -24 -359 -80 -478 -160 -180 -119
-251 -282 -253 -579 -1 -115 3 -165 17 -215 42 -152 116 -258 215 -307 49 -24
69 -28 142 -28 77 0 92 3 153 33 38 19 97 61 133 94 181 170 277 431 334 914
l12 101 70 7 c104 10 232 40 385 91 75 25 137 44 138 43 1 -2 -5 -66 -12 -143
-8 -83 -12 -212 -10 -315 3 -157 6 -181 26 -227 76 -173 259 -176 348 -7 17
32 38 84 48 114 21 67 31 79 40 50 11 -34 64 -89 109 -112 56 -29 145 -28 209
2 53 25 117 92 144 151 10 21 20 38 23 38 3 0 17 -17 31 -38 66 -96 213 -93
285 6 28 38 68 117 84 168 l13 40 13 -37 c19 -56 43 -87 89 -113 48 -29 116
-33 169 -11 68 28 135 119 166 224 7 23 15 40 17 38 2 -2 -6 -95 -17 -207 -11
-112 -20 -207 -20 -210 0 -4 -60 -9 -132 -11 -205 -7 -299 -51 -355 -166 -48
-99 -33 -214 39 -278 50 -46 89 -59 178 -59 72 0 93 4 142 28 97 48 170 134
214 252 21 58 23 60 56 58 208 -12 260 -4 321 55 36 34 67 93 67 127 l0 27
-32 -28 c-76 -63 -128 -73 -276 -52 -77 10 -83 13 -78 32 3 12 13 87 22 167
l17 146 66 -1 c122 -1 198 63 246 209 6 18 8 17 20 -11 36 -87 124 -146 215
-146 103 0 187 55 248 162 l29 50 31 -39 c36 -45 86 -71 136 -71 109 0 196
104 246 295 11 39 19 58 19 44 1 -46 31 -127 58 -160 47 -56 132 -75 192 -45
43 23 95 86 129 159 33 68 90 246 113 350 11 52 11 60 -4 75 -13 12 -22 14
-33 7 -8 -6 -42 -77 -74 -158 -103 -259 -174 -357 -220 -302 -10 12 -11 49 -7
148 6 134 15 197 128 815 33 183 57 337 54 342 -3 5 -20 7 -38 3 -74 -13 -138
-44 -244 -116 -292 -202 -627 -371 -913 -462 -242 -77 -519 -107 -793 -87
-261 20 -420 58 -571 135 -208 107 -305 280 -276 490 22 160 112 273 284 357
147 73 232 93 391 94 126 1 132 0 197 -31 122 -57 146 -115 91 -212 -19 -34
-24 -55 -19 -74 16 -64 95 -89 140 -44 12 12 36 45 52 72 25 44 29 60 29 130
0 64 -5 89 -23 123 -49 92 -165 170 -307 207 -82 21 -238 18 -354 -6z m1512
-1527 c43 -47 43 -226 1 -362 -40 -127 -99 -203 -171 -216 -44 -8 -83 18 -100
67 -39 110 16 356 102 457 53 63 136 90 168 54z m-1829 -435 c19 -26 21 -42
20 -150 -1 -105 -5 -133 -27 -200 -54 -156 -138 -238 -215 -211 -47 17 -67 67
-66 169 2 182 77 355 177 404 53 27 84 23 111 -12z m-1650 -239 c-2 -13 -13
-86 -24 -163 -59 -410 -174 -650 -347 -727 -163 -72 -275 128 -245 435 12 128
31 193 74 255 35 51 133 117 232 156 70 28 225 64 282 65 27 1 31 -2 28 -21z
m2460 -520 c55 -11 57 -12 51 -37 -34 -140 -146 -241 -267 -241 -148 0 -176
194 -39 267 51 27 156 31 255 11z"/>
<path d="M8615 6745 c-38 -40 -96 -87 -127 -104 -70 -40 -75 -63 -23 -115 l35
-35 -81 -61 c-44 -33 -95 -68 -112 -76 -84 -42 -87 -74 -17 -148 l49 -52 -42
-42 c-24 -23 -83 -73 -132 -110 -56 -42 -91 -76 -93 -89 -5 -35 25 -80 83
-124 47 -36 53 -44 44 -61 -6 -10 -56 -66 -111 -124 -131 -136 -133 -158 -21
-236 24 -16 71 -39 105 -52 l63 -24 -3 -59 c-6 -100 8 -93 -170 -94 -86 0
-188 -3 -225 -8 -38 -4 -70 -4 -72 -1 -2 3 -6 33 -10 65 l-7 60 66 34 c73 37
126 90 126 125 0 16 -26 47 -90 105 -49 46 -90 87 -90 93 0 6 11 19 24 29 37
29 69 86 62 112 -3 13 -32 38 -73 64 -116 71 -110 63 -84 117 30 62 19 79 -77
116 -91 35 -192 95 -255 150 -70 62 -78 54 -71 -77 5 -82 2 -131 -11 -203 -10
-52 -19 -111 -19 -130 -1 -31 3 -36 31 -45 18 -6 35 -13 38 -17 3 -3 -6 -30
-21 -60 -35 -71 -28 -103 24 -125 20 -8 39 -17 40 -18 2 -2 -18 -37 -45 -77
-61 -90 -65 -102 -51 -133 19 -42 158 -95 248 -95 27 0 28 -2 35 -61 4 -33 6
-62 4 -64 -2 -2 -58 -15 -124 -30 -438 -98 -869 -306 -1870 -903 -591 -352
-721 -421 -947 -500 -185 -65 -382 -84 -518 -48 -149 39 -292 133 -419 277
-80 90 -101 104 -101 68 0 -52 198 -270 311 -342 137 -87 275 -122 453 -114
104 5 234 27 297 52 14 5 13 -6 -7 -92 -38 -154 -101 -474 -124 -633 -27 -176
-37 -421 -21 -505 30 -162 129 -250 243 -216 81 25 154 120 214 278 l32 86 20
-40 c24 -47 84 -103 144 -135 36 -19 58 -23 138 -23 87 0 101 3 165 33 105 50
167 101 221 185 75 114 76 114 70 95 -3 -9 -10 -90 -17 -180 -24 -322 22 -507
141 -568 54 -28 127 -27 170 2 42 29 49 48 18 48 -49 1 -106 37 -129 82 -20
37 -24 62 -27 180 -5 152 2 240 54 668 l35 295 57 53 c77 71 188 127 236 118
70 -13 93 -61 103 -216 l6 -95 -49 -23 c-167 -80 -260 -154 -284 -227 -16 -49
-8 -130 17 -163 49 -68 159 -80 247 -28 91 53 178 188 210 325 8 35 16 64 18
65 2 1 38 29 82 61 43 33 86 66 95 72 15 11 17 9 13 -20 -6 -57 25 -177 60
-230 43 -63 131 -122 206 -138 118 -24 278 35 386 143 96 97 180 278 231 499
20 86 16 112 -17 107 -18 -2 -32 -26 -75 -131 -123 -303 -235 -433 -402 -468
-128 -26 -221 57 -221 196 0 63 8 68 68 45 63 -24 120 -25 192 -4 41 12 67 29
111 73 49 49 61 69 80 130 58 194 -59 368 -232 348 -135 -16 -250 -121 -320
-290 -34 -82 -73 -127 -174 -198 l-69 -49 -12 70 c-24 141 -88 226 -193 256
-97 29 -182 0 -287 -99 l-64 -59 0 61 0 61 -35 0 c-43 0 -94 -20 -116 -46 -11
-12 -24 -71 -39 -169 -19 -129 -29 -168 -72 -273 -121 -296 -253 -436 -424
-450 -52 -4 -68 -1 -103 19 -23 13 -51 38 -62 56 -22 35 -36 125 -25 167 l6
25 48 -21 c92 -41 220 -21 300 48 22 19 54 61 71 94 40 81 48 150 26 227 -42
149 -168 209 -320 152 -149 -56 -276 -276 -300 -519 -5 -55 -17 -93 -42 -145
-51 -101 -139 -231 -177 -260 -64 -48 -86 -8 -86 154 1 137 5 167 97 730 l78
474 30 10 c69 23 416 208 778 416 969 554 1376 749 1768 845 372 91 731 108
989 46 202 -49 366 -167 443 -320 80 -159 84 -320 13 -465 -142 -287 -511
-483 -991 -528 -100 -9 -130 -15 -130 -26 0 -24 53 -32 220 -33 250 -1 430 39
640 142 412 202 576 557 428 927 -87 218 -295 391 -547 454 l-48 12 6 51 c3
28 6 65 6 81 0 30 1 31 73 42 127 20 238 72 264 122 16 33 6 54 -71 155 -97
127 -96 122 -33 140 60 18 87 41 87 77 0 13 -30 82 -65 153 -36 71 -65 132
-65 136 0 4 23 11 52 14 28 4 64 14 81 22 26 14 28 20 24 52 -3 20 -21 75 -40
122 -20 47 -39 103 -43 126 l-6 41 42 6 c24 3 50 13 59 21 13 14 14 20 2 49
-39 92 -61 172 -67 236 -6 57 -10 71 -23 70 -9 -1 -47 -34 -86 -74z m-1421
-3255 c66 -25 87 -140 42 -236 -52 -112 -169 -158 -288 -112 l-26 10 15 51
c24 82 68 181 97 220 25 33 95 77 123 77 6 0 23 -4 37 -10z m-1755 -411 c76
-71 45 -242 -57 -313 -52 -37 -146 -47 -204 -23 l-37 16 28 83 c48 143 91 211
156 246 33 19 89 14 114 -9z m920 -276 c-35 -134 -99 -213 -173 -213 -60 0
-84 57 -50 122 12 23 39 41 117 79 56 26 105 48 109 49 3 0 2 -17 -3 -37z"/>
<path d="M1637 3458 c-27 -15 -20 -44 34 -147 258 -481 594 -896 989 -1217
110 -89 127 -99 145 -84 8 7 15 20 15 29 0 10 -56 64 -127 123 -385 320 -716
728 -943 1161 -39 74 -76 137 -83 140 -7 3 -21 1 -30 -5z"/>
<path d="M8548 3407 c-8 -7 -44 -66 -79 -132 -86 -161 -253 -410 -385 -575
-127 -158 -373 -409 -527 -535 -81 -67 -107 -94 -105 -110 2 -13 12 -21 28
-23 36 -4 186 121 395 332 236 237 420 471 582 741 71 119 143 259 143 279 0
23 -34 38 -52 23z"/>
<path d="M7111 1917 c-59 -35 -67 -103 -17 -153 38 -38 70 -43 115 -19 53 27
66 119 22 159 -26 23 -90 30 -120 13z"/>
<path d="M3073 1905 c-46 -20 -68 -68 -54 -116 15 -48 44 -69 97 -69 84 0 124
97 67 159 -34 36 -68 44 -110 26z"/>
<path d="M3510 1569 c-52 -124 -61 -152 -49 -160 27 -17 36 -9 63 55 l28 65
40 -15 c58 -20 76 -18 109 15 31 32 38 75 18 113 -8 15 -122 78 -142 78 -1 0
-32 -68 -67 -151z m138 65 c44 -31 19 -91 -33 -78 -35 9 -40 25 -20 63 18 35
22 37 53 15z"/>
<path d="M6575 1691 c-61 -25 -79 -102 -34 -147 20 -19 40 -26 85 -31 77 -7
94 -17 94 -52 0 -37 -45 -60 -80 -41 -18 10 -25 9 -39 -5 -15 -15 -14 -18 8
-36 59 -49 171 6 171 84 0 35 -24 83 -46 91 -10 4 -44 9 -76 13 -55 6 -88 22
-88 43 0 19 34 41 60 38 36 -3 65 19 49 38 -12 15 -72 18 -104 5z"/>
<path d="M6228 1557 c-96 -30 -107 -38 -89 -66 7 -11 15 -11 45 -1 21 7 39 10
40 8 2 -1 21 -59 43 -128 29 -94 43 -126 57 -128 38 -8 38 14 -3 143 -22 71
-38 131 -36 135 3 4 21 11 40 14 36 7 40 12 29 40 -8 20 -9 20 -126 -17z"/>
<path d="M3917 1573 c-7 -11 -85 -265 -89 -287 -2 -12 5 -21 19 -27 20 -7 24
-2 45 63 l24 71 28 -79 c31 -86 40 -98 74 -109 l22 -6 -30 82 c-16 46 -30 84
-30 85 0 1 14 5 31 9 35 8 69 55 69 97 0 38 -36 73 -94 92 -56 18 -63 19 -69
9z m81 -69 c25 -17 28 -42 9 -67 -9 -13 -20 -16 -45 -11 -34 7 -35 8 -11 72
10 26 17 27 47 6z"/>
<path d="M5857 1468 c-51 -14 -102 -64 -118 -116 -23 -78 17 -173 85 -206 61
-29 169 -15 203 25 6 8 9 26 6 41 l-5 27 -34 -25 c-69 -53 -154 -38 -188 33
-21 45 -20 81 4 120 27 45 53 56 121 51 56 -4 59 -3 59 18 0 16 -9 25 -31 33
-37 13 -50 13 -102 -1z"/>
<path d="M4334 1441 c-56 -25 -87 -71 -92 -138 -6 -66 9 -103 58 -147 152
-137 378 69 254 231 -51 67 -142 89 -220 54z m120 -45 c68 -28 95 -101 61
-166 -22 -42 -53 -60 -105 -60 -69 1 -110 43 -110 115 0 49 23 89 62 108 41
20 50 21 92 3z"/>
<path d="M5478 1405 c-3 -3 -3 -64 0 -134 5 -126 4 -128 -19 -144 -28 -20 -78
-22 -103 -4 -20 15 -35 78 -36 153 0 88 -9 114 -38 114 l-25 0 7 -117 c10
-181 36 -217 155 -210 57 3 67 6 92 35 25 28 29 40 29 96 0 34 -3 97 -6 139
-6 71 -9 77 -29 77 -12 0 -24 -2 -27 -5z"/>
<path d="M4786 1240 c-4 -89 -4 -165 -1 -169 4 -3 46 -6 95 -6 74 0 93 3 116
21 55 41 69 70 69 144 0 113 -49 156 -192 167 l-80 6 -7 -163z m191 76 c25
-22 28 -31 28 -84 0 -50 -4 -65 -24 -86 -21 -22 -33 -26 -83 -26 l-58 0 0 43
c0 23 3 72 7 110 l6 67 48 0 c36 0 55 -6 76 -24z"/>
</g>
</svg>
